<mxfile host="app.diagrams.net" modified="2023-05-13T14:20:59.573Z" agent="Mozilla/5.0 (Windows NT 10.0; Win64; x64) AppleWebKit/537.36 (KHTML, like Gecko) Chrome/113.0.0.0 Safari/537.36" etag="-H1XWvsaM-kk3NTThfVM" version="21.2.9" type="github">
  <diagram name="Page-1" id="c4acf3e9-155e-7222-9cf6-157b1a14988f">
    <mxGraphModel dx="3151" dy="1731" grid="1" gridSize="10" guides="1" tooltips="1" connect="1" arrows="1" fold="1" page="1" pageScale="1" pageWidth="850" pageHeight="1100" background="none" math="0" shadow="0">
      <root>
        <mxCell id="0" />
        <mxCell id="1" parent="0" />
        <mxCell id="AAQSk_EHmFuj2mP-s7ZK-1" value="&lt;p style=&quot;margin:0px;margin-top:4px;text-align:center;&quot;&gt;&lt;br&gt;&lt;b&gt;Field&lt;/b&gt;&lt;/p&gt;" style="verticalAlign=top;align=left;overflow=fill;fontSize=12;fontFamily=Helvetica;html=1;whiteSpace=wrap;" vertex="1" parent="1">
          <mxGeometry x="870" y="340" width="140" height="60" as="geometry" />
        </mxCell>
        <mxCell id="AAQSk_EHmFuj2mP-s7ZK-5" value="" style="endArrow=none;html=1;edgeStyle=orthogonalEdgeStyle;rounded=0;" edge="1" parent="1">
          <mxGeometry relative="1" as="geometry">
            <mxPoint x="1010" y="400" as="sourcePoint" />
            <mxPoint x="1090" y="430" as="targetPoint" />
          </mxGeometry>
        </mxCell>
        <mxCell id="AAQSk_EHmFuj2mP-s7ZK-6" value="parent" style="edgeLabel;resizable=0;html=1;align=left;verticalAlign=bottom;" connectable="0" vertex="1" parent="AAQSk_EHmFuj2mP-s7ZK-5">
          <mxGeometry x="-1" relative="1" as="geometry" />
        </mxCell>
        <mxCell id="AAQSk_EHmFuj2mP-s7ZK-7" value="child" style="edgeLabel;resizable=0;html=1;align=right;verticalAlign=bottom;" connectable="0" vertex="1" parent="AAQSk_EHmFuj2mP-s7ZK-5">
          <mxGeometry x="1" relative="1" as="geometry" />
        </mxCell>
        <mxCell id="AAQSk_EHmFuj2mP-s7ZK-8" value="" style="endArrow=none;html=1;edgeStyle=orthogonalEdgeStyle;rounded=0;" edge="1" parent="1">
          <mxGeometry relative="1" as="geometry">
            <mxPoint x="1010" y="369.5" as="sourcePoint" />
            <mxPoint x="1140" y="430" as="targetPoint" />
          </mxGeometry>
        </mxCell>
        <mxCell id="AAQSk_EHmFuj2mP-s7ZK-9" value="parent" style="edgeLabel;resizable=0;html=1;align=left;verticalAlign=bottom;" connectable="0" vertex="1" parent="AAQSk_EHmFuj2mP-s7ZK-8">
          <mxGeometry x="-1" relative="1" as="geometry" />
        </mxCell>
        <mxCell id="AAQSk_EHmFuj2mP-s7ZK-10" value="child" style="edgeLabel;resizable=0;html=1;align=right;verticalAlign=bottom;" connectable="0" vertex="1" parent="AAQSk_EHmFuj2mP-s7ZK-8">
          <mxGeometry x="1" relative="1" as="geometry" />
        </mxCell>
        <mxCell id="AAQSk_EHmFuj2mP-s7ZK-13" value="" style="endArrow=none;html=1;edgeStyle=orthogonalEdgeStyle;rounded=0;" edge="1" parent="1">
          <mxGeometry relative="1" as="geometry">
            <mxPoint x="1009.5" y="350" as="sourcePoint" />
            <mxPoint x="1340" y="411" as="targetPoint" />
            <Array as="points">
              <mxPoint x="1010" y="351" />
              <mxPoint x="1340" y="351" />
              <mxPoint x="1340" y="411" />
            </Array>
          </mxGeometry>
        </mxCell>
        <mxCell id="AAQSk_EHmFuj2mP-s7ZK-14" value="parent" style="edgeLabel;resizable=0;html=1;align=left;verticalAlign=bottom;" connectable="0" vertex="1" parent="AAQSk_EHmFuj2mP-s7ZK-13">
          <mxGeometry x="-1" relative="1" as="geometry" />
        </mxCell>
        <mxCell id="AAQSk_EHmFuj2mP-s7ZK-15" value="child" style="edgeLabel;resizable=0;html=1;align=right;verticalAlign=bottom;" connectable="0" vertex="1" parent="AAQSk_EHmFuj2mP-s7ZK-13">
          <mxGeometry x="1" relative="1" as="geometry" />
        </mxCell>
        <mxCell id="AAQSk_EHmFuj2mP-s7ZK-18" value="" style="endArrow=none;html=1;edgeStyle=orthogonalEdgeStyle;rounded=0;entryX=0.186;entryY=-0.016;entryDx=0;entryDy=0;entryPerimeter=0;" edge="1" parent="1" target="AAQSk_EHmFuj2mP-s7ZK-28">
          <mxGeometry relative="1" as="geometry">
            <mxPoint x="1030" y="350" as="sourcePoint" />
            <mxPoint x="1460" y="410" as="targetPoint" />
            <Array as="points">
              <mxPoint x="1460" y="351" />
              <mxPoint x="1460" y="410" />
            </Array>
          </mxGeometry>
        </mxCell>
        <mxCell id="AAQSk_EHmFuj2mP-s7ZK-19" value="parent" style="edgeLabel;resizable=0;html=1;align=left;verticalAlign=bottom;" connectable="0" vertex="1" parent="AAQSk_EHmFuj2mP-s7ZK-18">
          <mxGeometry x="-1" relative="1" as="geometry" />
        </mxCell>
        <mxCell id="AAQSk_EHmFuj2mP-s7ZK-20" value="child" style="edgeLabel;resizable=0;html=1;align=right;verticalAlign=bottom;" connectable="0" vertex="1" parent="AAQSk_EHmFuj2mP-s7ZK-18">
          <mxGeometry x="1" relative="1" as="geometry" />
        </mxCell>
        <mxCell id="AAQSk_EHmFuj2mP-s7ZK-23" value="" style="endArrow=none;html=1;edgeStyle=orthogonalEdgeStyle;rounded=0;entryX=0.5;entryY=0;entryDx=0;entryDy=0;" edge="1" parent="1">
          <mxGeometry relative="1" as="geometry">
            <mxPoint x="1009.5" y="340" as="sourcePoint" />
            <mxPoint x="1560" y="360" as="targetPoint" />
            <Array as="points">
              <mxPoint x="1010" y="341" />
              <mxPoint x="1560" y="341" />
            </Array>
          </mxGeometry>
        </mxCell>
        <mxCell id="AAQSk_EHmFuj2mP-s7ZK-24" value="parent" style="edgeLabel;resizable=0;html=1;align=left;verticalAlign=bottom;" connectable="0" vertex="1" parent="AAQSk_EHmFuj2mP-s7ZK-23">
          <mxGeometry x="-1" relative="1" as="geometry" />
        </mxCell>
        <mxCell id="AAQSk_EHmFuj2mP-s7ZK-25" value="child" style="edgeLabel;resizable=0;html=1;align=right;verticalAlign=bottom;" connectable="0" vertex="1" parent="AAQSk_EHmFuj2mP-s7ZK-23">
          <mxGeometry x="1" relative="1" as="geometry" />
        </mxCell>
        <mxCell id="AAQSk_EHmFuj2mP-s7ZK-26" value="&lt;p style=&quot;margin:0px;margin-top:4px;text-align:center;&quot;&gt;&lt;b&gt;Email&lt;/b&gt;&lt;/p&gt;&lt;hr size=&quot;1&quot;&gt;&lt;p style=&quot;margin:0px;margin-left:4px;&quot;&gt;+ field:&amp;nbsp;value&lt;/p&gt;&lt;hr size=&quot;1&quot;&gt;&lt;p style=&quot;margin:0px;margin-left:4px;&quot;&gt;+ method():&amp;nbsp;&lt;/p&gt;&lt;p style=&quot;margin:0px;margin-left:4px;&quot;&gt;@property&lt;/p&gt;&lt;p style=&quot;margin:0px;margin-left:4px;&quot;&gt;def value&lt;/p&gt;&lt;p style=&quot;margin:0px;margin-left:4px;&quot;&gt;@value_setter&lt;/p&gt;&lt;p style=&quot;margin:0px;margin-left:4px;&quot;&gt;def value&lt;/p&gt;" style="verticalAlign=top;align=left;overflow=fill;fontSize=12;fontFamily=Helvetica;html=1;whiteSpace=wrap;" vertex="1" parent="1">
          <mxGeometry x="1510" y="360" width="160" height="90" as="geometry" />
        </mxCell>
        <mxCell id="AAQSk_EHmFuj2mP-s7ZK-28" value="&lt;p style=&quot;margin:0px;margin-top:4px;text-align:center;&quot;&gt;&lt;b&gt;Address&lt;/b&gt;&lt;/p&gt;&lt;hr size=&quot;1&quot;&gt;&lt;p style=&quot;margin:0px;margin-left:4px;&quot;&gt;+ field:&amp;nbsp;value&lt;/p&gt;&lt;hr size=&quot;1&quot;&gt;&lt;p style=&quot;margin:0px;margin-left:4px;&quot;&gt;+ method():&amp;nbsp;&lt;/p&gt;&lt;p style=&quot;margin:0px;margin-left:4px;&quot;&gt;@property&lt;/p&gt;&lt;p style=&quot;margin:0px;margin-left:4px;&quot;&gt;def value&lt;/p&gt;&lt;p style=&quot;margin:0px;margin-left:4px;&quot;&gt;@value_setter&lt;/p&gt;&lt;p style=&quot;margin:0px;margin-left:4px;&quot;&gt;def value&lt;/p&gt;" style="verticalAlign=top;align=left;overflow=fill;fontSize=12;fontFamily=Helvetica;html=1;whiteSpace=wrap;" vertex="1" parent="1">
          <mxGeometry x="1430" y="460" width="160" height="140" as="geometry" />
        </mxCell>
        <mxCell id="AAQSk_EHmFuj2mP-s7ZK-29" value="&lt;p style=&quot;margin:0px;margin-top:4px;text-align:center;&quot;&gt;&lt;b&gt;Class&lt;/b&gt;&lt;/p&gt;&lt;hr size=&quot;1&quot;&gt;&lt;p style=&quot;margin:0px;margin-left:4px;&quot;&gt;+ field:&amp;nbsp;value&lt;/p&gt;&lt;hr size=&quot;1&quot;&gt;&lt;p style=&quot;margin:0px;margin-left:4px;&quot;&gt;+ method():&amp;nbsp;&lt;/p&gt;&lt;p style=&quot;margin:0px;margin-left:4px;&quot;&gt;@property&lt;/p&gt;&lt;p style=&quot;margin:0px;margin-left:4px;&quot;&gt;def value&lt;/p&gt;&lt;p style=&quot;margin:0px;margin-left:4px;&quot;&gt;@value_setter&lt;/p&gt;&lt;p style=&quot;margin:0px;margin-left:4px;&quot;&gt;def value&lt;/p&gt;" style="verticalAlign=top;align=left;overflow=fill;fontSize=12;fontFamily=Helvetica;html=1;whiteSpace=wrap;" vertex="1" parent="1">
          <mxGeometry x="1280" y="410" width="140" height="140" as="geometry" />
        </mxCell>
        <mxCell id="AAQSk_EHmFuj2mP-s7ZK-30" value="&lt;p style=&quot;margin:0px;margin-top:4px;text-align:center;&quot;&gt;&lt;b&gt;Phone&lt;/b&gt;&lt;/p&gt;&lt;hr size=&quot;1&quot;&gt;&lt;p style=&quot;margin:0px;margin-left:4px;&quot;&gt;+ field:&amp;nbsp;value&lt;/p&gt;&lt;hr size=&quot;1&quot;&gt;&lt;p style=&quot;margin:0px;margin-left:4px;&quot;&gt;+ method():&amp;nbsp;&lt;/p&gt;&lt;p style=&quot;margin:0px;margin-left:4px;&quot;&gt;@property&lt;/p&gt;&lt;p style=&quot;margin:0px;margin-left:4px;&quot;&gt;def value&lt;/p&gt;&lt;p style=&quot;margin:0px;margin-left:4px;&quot;&gt;@value_setter&lt;/p&gt;&lt;p style=&quot;margin:0px;margin-left:4px;&quot;&gt;def value&lt;/p&gt;" style="verticalAlign=top;align=left;overflow=fill;fontSize=12;fontFamily=Helvetica;html=1;whiteSpace=wrap;" vertex="1" parent="1">
          <mxGeometry x="1120" y="430" width="140" height="180" as="geometry" />
        </mxCell>
        <mxCell id="AAQSk_EHmFuj2mP-s7ZK-31" value="&lt;p style=&quot;margin:0px;margin-top:4px;text-align:center;&quot;&gt;&lt;b&gt;Name&lt;/b&gt;&lt;/p&gt;&lt;hr size=&quot;1&quot;&gt;&lt;p style=&quot;margin:0px;margin-left:4px;&quot;&gt;+ field:&amp;nbsp;value&lt;/p&gt;&lt;hr size=&quot;1&quot;&gt;&lt;p style=&quot;margin:0px;margin-left:4px;&quot;&gt;+ method():&amp;nbsp;&lt;/p&gt;&lt;p style=&quot;margin:0px;margin-left:4px;&quot;&gt;@property&lt;/p&gt;&lt;p style=&quot;margin:0px;margin-left:4px;&quot;&gt;def value&lt;/p&gt;&lt;p style=&quot;margin:0px;margin-left:4px;&quot;&gt;@value_setter&lt;/p&gt;&lt;p style=&quot;margin:0px;margin-left:4px;&quot;&gt;def value&lt;/p&gt;" style="verticalAlign=top;align=left;overflow=fill;fontSize=12;fontFamily=Helvetica;html=1;whiteSpace=wrap;" vertex="1" parent="1">
          <mxGeometry x="930" y="430" width="160" height="160" as="geometry" />
        </mxCell>
        <mxCell id="AAQSk_EHmFuj2mP-s7ZK-33" value="&lt;p style=&quot;margin:0px;margin-top:4px;text-align:center;&quot;&gt;&lt;b&gt;Record&lt;/b&gt;&lt;/p&gt;&lt;hr size=&quot;1&quot;&gt;&lt;p style=&quot;margin:0px;margin-left:4px;&quot;&gt;+ field: name(class Name)&lt;/p&gt;&lt;p style=&quot;margin:0px;margin-left:4px;&quot;&gt;phone(class Phone)&lt;/p&gt;&lt;p style=&quot;margin:0px;margin-left:4px;&quot;&gt;birthday (class Birthday)&lt;/p&gt;&lt;p style=&quot;margin:0px;margin-left:4px;&quot;&gt;address (class Address)&lt;/p&gt;&lt;p style=&quot;margin:0px;margin-left:4px;&quot;&gt;email(class Email)&lt;/p&gt;&lt;hr size=&quot;1&quot;&gt;&lt;p style=&quot;margin:0px;margin-left:4px;&quot;&gt;+ method():&amp;nbsp;&lt;/p&gt;&lt;p style=&quot;margin:0px;margin-left:4px;&quot;&gt;raise_nonumber,&lt;/p&gt;&lt;p style=&quot;margin:0px;margin-left:4px;&quot;&gt;raise_same_number,&lt;/p&gt;&lt;p style=&quot;margin:0px;margin-left:4px;&quot;&gt;raise_empty_number,&lt;br&gt;&lt;/p&gt;&lt;p style=&quot;margin:0px;margin-left:4px;&quot;&gt;add_data,&lt;br&gt;&lt;/p&gt;&lt;p style=&quot;margin:0px;margin-left:4px;&quot;&gt;change_data,&lt;/p&gt;&lt;p style=&quot;margin:0px;margin-left:4px;&quot;&gt;add_phone,&lt;/p&gt;&lt;p style=&quot;margin:0px;margin-left:4px;&quot;&gt;remone_phone,&lt;/p&gt;&lt;p style=&quot;margin:0px;margin-left:4px;&quot;&gt;change_phone,&lt;/p&gt;&lt;p style=&quot;margin:0px;margin-left:4px;&quot;&gt;get_numbers,&lt;/p&gt;&lt;p style=&quot;margin:0px;margin-left:4px;&quot;&gt;days_to_birthday&lt;/p&gt;&lt;p style=&quot;margin:0px;margin-left:4px;&quot;&gt;&lt;br&gt;&lt;/p&gt;&lt;p style=&quot;margin:0px;margin-left:4px;&quot;&gt;&lt;br&gt;&lt;/p&gt;" style="verticalAlign=top;align=left;overflow=fill;fontSize=12;fontFamily=Helvetica;html=1;whiteSpace=wrap;" vertex="1" parent="1">
          <mxGeometry x="650" y="610" width="160" height="280" as="geometry" />
        </mxCell>
        <mxCell id="AAQSk_EHmFuj2mP-s7ZK-34" value="1" style="endArrow=open;html=1;endSize=12;startArrow=diamondThin;startSize=14;startFill=0;edgeStyle=orthogonalEdgeStyle;align=left;verticalAlign=bottom;rounded=0;" edge="1" parent="1">
          <mxGeometry x="-1" y="3" relative="1" as="geometry">
            <mxPoint x="810" y="630" as="sourcePoint" />
            <mxPoint x="970" y="600" as="targetPoint" />
          </mxGeometry>
        </mxCell>
        <mxCell id="AAQSk_EHmFuj2mP-s7ZK-36" value="1" style="endArrow=open;html=1;endSize=12;startArrow=diamondThin;startSize=14;startFill=0;edgeStyle=orthogonalEdgeStyle;align=left;verticalAlign=bottom;rounded=0;entryX=0.5;entryY=1.013;entryDx=0;entryDy=0;entryPerimeter=0;exitX=1.004;exitY=0.453;exitDx=0;exitDy=0;exitPerimeter=0;" edge="1" parent="1" source="AAQSk_EHmFuj2mP-s7ZK-33" target="AAQSk_EHmFuj2mP-s7ZK-30">
          <mxGeometry x="-1" y="3" relative="1" as="geometry">
            <mxPoint x="810" y="729.5" as="sourcePoint" />
            <mxPoint x="970" y="699.5" as="targetPoint" />
            <Array as="points">
              <mxPoint x="1190" y="737" />
            </Array>
          </mxGeometry>
        </mxCell>
        <mxCell id="AAQSk_EHmFuj2mP-s7ZK-40" value="1" style="endArrow=open;html=1;endSize=12;startArrow=diamondThin;startSize=14;startFill=0;edgeStyle=orthogonalEdgeStyle;align=left;verticalAlign=bottom;rounded=0;entryX=0.138;entryY=1.019;entryDx=0;entryDy=0;entryPerimeter=0;exitX=1.015;exitY=0.581;exitDx=0;exitDy=0;exitPerimeter=0;" edge="1" parent="1" source="AAQSk_EHmFuj2mP-s7ZK-33" target="AAQSk_EHmFuj2mP-s7ZK-28">
          <mxGeometry x="-1" y="3" relative="1" as="geometry">
            <mxPoint x="840" y="680" as="sourcePoint" />
            <mxPoint x="1000" y="650" as="targetPoint" />
          </mxGeometry>
        </mxCell>
        <mxCell id="AAQSk_EHmFuj2mP-s7ZK-42" value="1" style="endArrow=open;html=1;endSize=12;startArrow=diamondThin;startSize=14;startFill=0;edgeStyle=orthogonalEdgeStyle;align=left;verticalAlign=bottom;rounded=0;entryX=0.35;entryY=1.024;entryDx=0;entryDy=0;entryPerimeter=0;" edge="1" parent="1" target="AAQSk_EHmFuj2mP-s7ZK-29">
          <mxGeometry x="-1" y="3" relative="1" as="geometry">
            <mxPoint x="810" y="700" as="sourcePoint" />
            <mxPoint x="970" y="670" as="targetPoint" />
          </mxGeometry>
        </mxCell>
        <mxCell id="AAQSk_EHmFuj2mP-s7ZK-48" value="1" style="endArrow=open;html=1;endSize=12;startArrow=diamondThin;startSize=14;startFill=0;edgeStyle=orthogonalEdgeStyle;align=left;verticalAlign=bottom;rounded=0;entryX=1;entryY=1;entryDx=0;entryDy=0;" edge="1" parent="1" target="AAQSk_EHmFuj2mP-s7ZK-26">
          <mxGeometry x="-1" y="3" relative="1" as="geometry">
            <mxPoint x="810" y="670" as="sourcePoint" />
            <mxPoint x="970" y="670" as="targetPoint" />
          </mxGeometry>
        </mxCell>
        <mxCell id="AAQSk_EHmFuj2mP-s7ZK-50" value="&lt;p style=&quot;margin:0px;margin-top:4px;text-align:center;&quot;&gt;&lt;b&gt;AddressBook&lt;/b&gt;&lt;/p&gt;&lt;p style=&quot;margin:0px;margin-left:4px;&quot;&gt;&lt;br&gt;&lt;/p&gt;&lt;hr size=&quot;1&quot;&gt;&lt;p style=&quot;margin:0px;margin-left:4px;&quot;&gt;+ method():&amp;nbsp;&lt;/p&gt;&lt;p style=&quot;margin:0px;margin-left:4px;&quot;&gt;add_record,&lt;/p&gt;&lt;p style=&quot;margin:0px;margin-left:4px;&quot;&gt;show_records,&lt;/p&gt;&lt;p style=&quot;margin:0px;margin-left:4px;&quot;&gt;find_records,&lt;/p&gt;&lt;p style=&quot;margin:0px;margin-left:4px;&quot;&gt;iterator,&lt;/p&gt;&lt;p style=&quot;margin:0px;margin-left:4px;&quot;&gt;upcoming_birthdays,&lt;/p&gt;&lt;p style=&quot;margin:0px;margin-left:4px;&quot;&gt;dump_file,&lt;/p&gt;&lt;p style=&quot;margin:0px;margin-left:4px;&quot;&gt;load_data&lt;/p&gt;&lt;p style=&quot;margin:0px;margin-left:4px;&quot;&gt;&lt;br&gt;&lt;/p&gt;&lt;p style=&quot;margin:0px;margin-left:4px;&quot;&gt;&lt;br&gt;&lt;/p&gt;" style="verticalAlign=top;align=left;overflow=fill;fontSize=12;fontFamily=Helvetica;html=1;whiteSpace=wrap;" vertex="1" parent="1">
          <mxGeometry x="440" y="730" width="160" height="160" as="geometry" />
        </mxCell>
        <mxCell id="AAQSk_EHmFuj2mP-s7ZK-51" value="1" style="endArrow=open;html=1;endSize=12;startArrow=diamondThin;startSize=14;startFill=0;edgeStyle=orthogonalEdgeStyle;align=left;verticalAlign=bottom;rounded=0;" edge="1" parent="1" source="AAQSk_EHmFuj2mP-s7ZK-50">
          <mxGeometry x="-1" y="3" relative="1" as="geometry">
            <mxPoint x="550" y="809.83" as="sourcePoint" />
            <mxPoint x="650" y="810.04" as="targetPoint" />
            <Array as="points" />
          </mxGeometry>
        </mxCell>
        <mxCell id="AAQSk_EHmFuj2mP-s7ZK-52" value="&lt;p style=&quot;margin:0px;margin-top:4px;text-align:center;&quot;&gt;&lt;b&gt;&lt;br&gt;&lt;/b&gt;&lt;/p&gt;&lt;p style=&quot;margin:0px;margin-top:4px;text-align:center;&quot;&gt;&lt;b&gt;&lt;br&gt;&lt;/b&gt;&lt;/p&gt;&lt;p style=&quot;margin:0px;margin-top:4px;text-align:center;&quot;&gt;&lt;b&gt;UserDict&lt;/b&gt;&lt;/p&gt;" style="verticalAlign=top;align=left;overflow=fill;fontSize=12;fontFamily=Helvetica;html=1;whiteSpace=wrap;" vertex="1" parent="1">
          <mxGeometry x="240" y="800" width="160" height="90" as="geometry" />
        </mxCell>
        <mxCell id="AAQSk_EHmFuj2mP-s7ZK-53" value="" style="endArrow=open;html=1;endSize=12;startArrow=diamondThin;startSize=14;startFill=0;edgeStyle=orthogonalEdgeStyle;align=left;verticalAlign=bottom;rounded=0;" edge="1" parent="1">
          <mxGeometry x="-1" y="3" relative="1" as="geometry">
            <mxPoint x="400" y="830" as="sourcePoint" />
            <mxPoint x="440" y="830" as="targetPoint" />
          </mxGeometry>
        </mxCell>
        <mxCell id="AAQSk_EHmFuj2mP-s7ZK-54" value="" style="endArrow=open;html=1;endSize=12;startArrow=diamondThin;startSize=14;startFill=0;edgeStyle=orthogonalEdgeStyle;align=left;verticalAlign=bottom;rounded=0;entryX=1;entryY=0.882;entryDx=0;entryDy=0;entryPerimeter=0;exitX=0.75;exitY=0;exitDx=0;exitDy=0;" edge="1" parent="1" source="AAQSk_EHmFuj2mP-s7ZK-52" target="AAQSk_EHmFuj2mP-s7ZK-55">
          <mxGeometry x="-1" y="3" relative="1" as="geometry">
            <mxPoint x="400" y="809.23" as="sourcePoint" />
            <mxPoint x="400" y="680" as="targetPoint" />
            <Array as="points">
              <mxPoint x="360" y="780" />
              <mxPoint x="410" y="780" />
              <mxPoint x="410" y="740" />
            </Array>
          </mxGeometry>
        </mxCell>
        <mxCell id="AAQSk_EHmFuj2mP-s7ZK-55" value="&lt;p style=&quot;margin:0px;margin-top:4px;text-align:center;&quot;&gt;&lt;b&gt;Notes&lt;/b&gt;&lt;/p&gt;&lt;p style=&quot;margin:0px;margin-left:4px;&quot;&gt;&lt;br&gt;&lt;/p&gt;&lt;hr size=&quot;1&quot;&gt;&lt;p style=&quot;margin:0px;margin-left:4px;&quot;&gt;+ method():&amp;nbsp;&lt;/p&gt;&lt;p style=&quot;margin:0px;margin-left:4px;&quot;&gt;add_note&lt;/p&gt;&lt;p style=&quot;margin:0px;margin-left:4px;&quot;&gt;edit_note&lt;/p&gt;&lt;p style=&quot;margin:0px;margin-left:4px;&quot;&gt;remove_note,&lt;/p&gt;&lt;p style=&quot;margin:0px;margin-left:4px;&quot;&gt;save-in_file,&lt;/p&gt;&lt;p style=&quot;margin:0px;margin-left:4px;&quot;&gt;open_from_file,&lt;/p&gt;&lt;p style=&quot;margin:0px;margin-left:4px;&quot;&gt;search_by_tag,&lt;/p&gt;&lt;p style=&quot;margin:0px;margin-left:4px;&quot;&gt;sort_by_tag&lt;/p&gt;" style="verticalAlign=top;align=left;overflow=fill;fontSize=12;fontFamily=Helvetica;html=1;whiteSpace=wrap;" vertex="1" parent="1">
          <mxGeometry x="240" y="590" width="160" height="170" as="geometry" />
        </mxCell>
        <mxCell id="AAQSk_EHmFuj2mP-s7ZK-56" value="&lt;p style=&quot;margin:0px;margin-top:4px;text-align:center;&quot;&gt;&lt;b&gt;HashTags&lt;/b&gt;&lt;/p&gt;&lt;hr size=&quot;1&quot;&gt;&lt;p style=&quot;margin:0px;margin-left:4px;&quot;&gt;+ field: value&lt;/p&gt;" style="verticalAlign=top;align=left;overflow=fill;fontSize=12;fontFamily=Helvetica;html=1;whiteSpace=wrap;" vertex="1" parent="1">
          <mxGeometry x="20" y="510" width="160" height="90" as="geometry" />
        </mxCell>
        <mxCell id="AAQSk_EHmFuj2mP-s7ZK-57" value="&lt;p style=&quot;margin:0px;margin-top:4px;text-align:center;&quot;&gt;&lt;b&gt;NoteRecord&lt;/b&gt;&lt;/p&gt;&lt;hr size=&quot;1&quot;&gt;&lt;p style=&quot;margin:0px;margin-left:4px;&quot;&gt;+ field: record, hashtags&lt;/p&gt;&lt;p style=&quot;margin:0px;margin-left:4px;&quot;&gt;&lt;br&gt;&lt;/p&gt;" style="verticalAlign=top;align=left;overflow=fill;fontSize=12;fontFamily=Helvetica;html=1;whiteSpace=wrap;" vertex="1" parent="1">
          <mxGeometry x="20" y="670" width="160" height="90" as="geometry" />
        </mxCell>
        <mxCell id="AAQSk_EHmFuj2mP-s7ZK-58" value="" style="endArrow=block;endFill=1;html=1;edgeStyle=orthogonalEdgeStyle;align=left;verticalAlign=top;rounded=0;exitX=0.998;exitY=0.607;exitDx=0;exitDy=0;exitPerimeter=0;entryX=-0.025;entryY=0.125;entryDx=0;entryDy=0;entryPerimeter=0;" edge="1" parent="1" source="AAQSk_EHmFuj2mP-s7ZK-56" target="AAQSk_EHmFuj2mP-s7ZK-55">
          <mxGeometry x="-1" relative="1" as="geometry">
            <mxPoint x="120" y="650" as="sourcePoint" />
            <mxPoint x="280" y="650" as="targetPoint" />
          </mxGeometry>
        </mxCell>
        <mxCell id="AAQSk_EHmFuj2mP-s7ZK-60" value="" style="endArrow=open;html=1;endSize=12;startArrow=diamondThin;startSize=14;startFill=0;edgeStyle=orthogonalEdgeStyle;align=left;verticalAlign=bottom;rounded=0;exitX=0.421;exitY=1.023;exitDx=0;exitDy=0;exitPerimeter=0;entryX=0.421;entryY=0;entryDx=0;entryDy=0;entryPerimeter=0;" edge="1" parent="1" source="AAQSk_EHmFuj2mP-s7ZK-56" target="AAQSk_EHmFuj2mP-s7ZK-57">
          <mxGeometry x="-1" y="3" relative="1" as="geometry">
            <mxPoint x="120" y="650" as="sourcePoint" />
            <mxPoint x="280" y="650" as="targetPoint" />
            <mxPoint as="offset" />
          </mxGeometry>
        </mxCell>
        <mxCell id="AAQSk_EHmFuj2mP-s7ZK-61" value="" style="endArrow=open;endFill=1;endSize=12;html=1;rounded=0;exitX=1.008;exitY=0.453;exitDx=0;exitDy=0;exitPerimeter=0;entryX=-0.018;entryY=0.451;entryDx=0;entryDy=0;entryPerimeter=0;" edge="1" parent="1" source="AAQSk_EHmFuj2mP-s7ZK-57" target="AAQSk_EHmFuj2mP-s7ZK-55">
          <mxGeometry width="160" relative="1" as="geometry">
            <mxPoint x="120" y="650" as="sourcePoint" />
            <mxPoint x="280" y="650" as="targetPoint" />
          </mxGeometry>
        </mxCell>
      </root>
    </mxGraphModel>
  </diagram>
</mxfile>
